<?xml version="1.0" encoding="UTF-8" standalone="no"?>
<svg
   xmlns:dc="http://purl.org/dc/elements/1.1/"
   xmlns:cc="http://creativecommons.org/ns#"
   xmlns:rdf="http://www.w3.org/1999/02/22-rdf-syntax-ns#"
   xmlns:svg="http://www.w3.org/2000/svg"
   xmlns="http://www.w3.org/2000/svg"
   xmlns:sodipodi="http://sodipodi.sourceforge.net/DTD/sodipodi-0.dtd"
   xmlns:inkscape="http://www.inkscape.org/namespaces/inkscape"
   version="1.1"
   viewBox="0 0 36.268337 36.410999"
   x="0px"
   y="0px"
   id="svg1515"
   sodipodi:docname="noun_Telephone_2591756_ltgreen.svg"
   width="36.268337"
   height="36.410999"
   inkscape:version="0.92.4 (5da689c313, 2019-01-14)">
  <metadata
     id="metadata1521">
    <rdf:RDF>
      <cc:Work
         rdf:about="">
        <dc:format>image/svg+xml</dc:format>
        <dc:type
           rdf:resource="http://purl.org/dc/dcmitype/StillImage" />
        <dc:title>telephone-3</dc:title>
      </cc:Work>
    </rdf:RDF>
  </metadata>
  <defs
     id="defs1519" />
  <sodipodi:namedview
     pagecolor="#ffffff"
     bordercolor="#666666"
     borderopacity="1"
     objecttolerance="10"
     gridtolerance="10"
     guidetolerance="10"
     inkscape:pageopacity="0"
     inkscape:pageshadow="2"
     inkscape:window-width="1366"
     inkscape:window-height="744"
     id="namedview1517"
     showgrid="false"
     inkscape:zoom="4.604878"
     inkscape:cx="18.131328"
     inkscape:cy="13.08"
     inkscape:window-x="0"
     inkscape:window-y="0"
     inkscape:window-maximized="1"
     inkscape:current-layer="svg1515" />
  <title
     id="title1507">telephone-3</title>
  <path
     d="m 6.9153282,0.001 c -0.826,0 -1.622,0.333 -2.368,1.043 l -2.903,2.903 C 0.67532819,4.916 0.14532819,6.052 0.03132819,7.411 c -0.139,1.758 0.18,3.643 1.04800001,5.981 v 0.002 c 1.337,3.63 3.353,6.998 6.372,10.628 l 0.018,0.023 c 3.6499998,4.357 8.0359998,7.784 13.0439998,10.211 l 0.005,0.002 c 1.915,0.907 4.434,1.955 7.193,2.137 0.179,0.008 0.339,0.016 0.501,0.016 1.799,0 3.159,-0.588 4.329,-1.853 l 0.018,-0.023 c 0.481,-0.579 1.011,-1.083 1.547,-1.604 l 0.002,-0.002 c 0.362,-0.347 0.732,-0.709 1.08,-1.073 0.744,-0.775 1.082,-1.606 1.08,-2.414 -0.002,-0.808 -0.34,-1.619 -1.087,-2.366 l -4.688,-4.688 c -0.704,-0.732 -1.492,-1.082 -2.318,-1.082 -0.826,0 -1.629,0.353 -2.359,1.082 l -3.107,3.107 -0.389,-0.224 c -0.238,-0.137 -0.49,-0.264 -0.739,-0.389 -0.315,-0.157 -0.622,-0.314 -0.911,-0.499 -2.597,-1.649 -4.949,-3.8 -7.184,-6.541 l -0.007,-0.007 c -1.134,-1.434 -1.913,-2.663 -2.46,-3.928 l -0.167,-0.387 0.311,-0.281 c 0.715,-0.646 1.39,-1.331 2.05,-2.007 0.24,-0.248 0.486,-0.491 0.725,-0.73 0.755,-0.755 1.121,-1.578 1.121,-2.389 0,-0.814 -0.358,-1.635 -1.119,-2.389 l -2.322,-2.322 c -0.276,-0.276 -0.536,-0.543 -0.801,-0.815 l -0.002,-0.002 C 10.303328,2.057 9.7733282,1.521 9.2573282,1.043 l -0.011,-0.011 C 8.5343282,0.335 7.7503282,0 6.9153282,0 Z m -0.004,0.737 c 0.661,0 1.295,0.319 1.819,0.851 0.529,0.491 1.021,0.996 1.5419998,1.526 l 0.005,0.005 c 0.258,0.266 0.529,0.535 0.803,0.819 l 2.32,2.32 c 0.552,0.552 0.904,1.187 0.904,1.872 0,0.685 -0.352,1.318 -0.904,1.869 -0.237,0.237 -0.479,0.485 -0.723,0.73 l -0.002,0.002 c -0.721,0.729 -1.406,1.434 -2.174,2.114 l -0.014,0.011 c -0.247,0.247 -0.307,0.422 -0.327,0.588 -0.02,0.163 0.014,0.34 0.078,0.533 0,0 0.002,0.004 0.002,0.005 v 0.005 c 0.002,0.005 0.008,0.019 0.014,0.034 0.575,1.379 1.371,2.693 2.643,4.292 l 0.002,0.005 c 2.301,2.838 4.711,5.023 7.363,6.706 l 0.002,0.002 h 0.005 c 0.291,0.189 0.627,0.355 0.97,0.531 l 0.007,0.002 c 0.291,0.145 0.572,0.292 0.842,0.46 l 0.062,0.034 c 0.005,0.003 0.032,0.017 0.03,0.016 l 0.005,0.002 h 0.002 c 0.184,0.095 0.337,0.13 0.49,0.13 0.375,0 0.622,-0.233 0.746,-0.357 l 2.913,-2.913 c 0.528,-0.528 1.161,-0.865 1.84,-0.865 0.833,0 1.441,0.486 1.807,0.881 l 4.681,4.672 c 0.543,0.543 0.872,1.187 0.867,1.867 -0.005,0.68 -0.337,1.322 -0.881,1.888 -0.337,0.361 -0.687,0.702 -1.052,1.052 l -0.002,0.002 c -0.546,0.531 -1.096,1.06 -1.581,1.643 l -0.011,0.011 -0.009,0.011 c -0.992,1.068 -2.264,1.604 -3.771,1.604 -0.152,0 -0.302,-0.007 -0.437,-0.014 h -0.002 l -0.002,-0.002 c -2.683,-0.172 -5.125,-1.208 -6.93,-2.066 h -0.002 l -0.002,-0.002 c -4.918,-2.38 -9.236,-5.757 -12.8149998,-10.04 h -0.002 c -2.936,-3.534 -4.932,-6.853 -6.251,-10.41 C 0.95932819,10.971 0.63232819,9.158 0.76532819,7.483 V 7.476 c 0.104,-1.154 0.57300001,-2.175 1.40700001,-3.009 l 2.903,-2.906 c 0.534,-0.515 1.174,-0.826 1.84,-0.826 z"
     id="path1509"
     inkscape:connector-curvature="0"
     style="fill:#38935a;fill-opacity:1;stroke:#38935a;stroke-opacity:1" />
</svg>
