<?xml version="1.0" encoding="UTF-8" standalone="no"?>
<svg
   xmlns:dc="http://purl.org/dc/elements/1.1/"
   xmlns:cc="http://creativecommons.org/ns#"
   xmlns:rdf="http://www.w3.org/1999/02/22-rdf-syntax-ns#"
   xmlns:svg="http://www.w3.org/2000/svg"
   xmlns="http://www.w3.org/2000/svg"
   xmlns:sodipodi="http://sodipodi.sourceforge.net/DTD/sodipodi-0.dtd"
   xmlns:inkscape="http://www.inkscape.org/namespaces/inkscape"
   version="1.1"
   x="0px"
   y="0px"
   viewBox="0 0 490 290"
   xml:space="preserve"
   id="svg18"
   sodipodi:docname="noun_Email_3027864_ltgreen.svg"
   width="490"
   height="290"
   inkscape:version="0.92.4 (5da689c313, 2019-01-14)"><metadata
     id="metadata24"><rdf:RDF><cc:Work
         rdf:about=""><dc:format>image/svg+xml</dc:format><dc:type
           rdf:resource="http://purl.org/dc/dcmitype/StillImage" /><dc:title></dc:title></cc:Work></rdf:RDF></metadata><defs
     id="defs22" /><sodipodi:namedview
     pagecolor="#ffffff"
     bordercolor="#666666"
     borderopacity="1"
     objecttolerance="10"
     gridtolerance="10"
     guidetolerance="10"
     inkscape:pageopacity="0"
     inkscape:pageshadow="2"
     inkscape:window-width="1366"
     inkscape:window-height="744"
     id="namedview20"
     showgrid="false"
     inkscape:zoom="0.36875"
     inkscape:cx="245"
     inkscape:cy="81"
     inkscape:window-x="0"
     inkscape:window-y="0"
     inkscape:window-maximized="1"
     inkscape:current-layer="svg18" /><g
     id="g12"
     transform="translate(-11,-111)"
     style="fill:#42935a;fill-opacity:1;stroke:#38935a;stroke-opacity:1"><g
       id="g10"
       style="fill:#42935a;fill-opacity:1;stroke:#38935a;stroke-opacity:1"><g
         id="g4"
         style="fill:#42935a;fill-opacity:1;stroke:#38935a;stroke-opacity:1"><path
           d="M 496,401 H 16 c -2.8,0 -5,-2.2 -5,-5 V 116 c 0,-2.8 2.2,-5 5,-5 h 480 c 2.8,0 5,2.2 5,5 v 280 c 0,2.8 -2.2,5 -5,5 z M 21,391 H 491 V 121 H 21 Z"
           id="path2"
           inkscape:connector-curvature="0"
           style="fill:#42935a;fill-opacity:1;stroke:#38935a;stroke-opacity:1" /></g><g
         id="g8"
         style="fill:#42935a;fill-opacity:1;stroke:#38935a;stroke-opacity:1"><path
           d="m 256,301 c -1.1,0 -2.1,-0.3 -3,-1 L 13,120 c -1.7,-1.3 -2.4,-3.5 -1.7,-5.6 0.7,-2 2.6,-3.4 4.7,-3.4 h 480 c 2.2,0 4.1,1.4 4.7,3.4 0.7,2 0,4.3 -1.7,5.6 L 259,300 c -0.9,0.7 -1.9,1 -3,1 z M 31,121 256,289.8 481,121 Z"
           id="path6"
           inkscape:connector-curvature="0"
           style="fill:#42935a;fill-opacity:1;stroke:#38935a;stroke-opacity:1" /></g></g></g></svg>