<svg xmlns="http://www.w3.org/2000/svg" version="1.1" viewBox="0 0 41 51.25" x="0px" y="0px"><title>telephone-3</title><path d="M9.284 2.295c-0.826 0-1.622 0.333-2.368 1.043l-2.903 2.903c-0.969 0.969-1.499 2.105-1.613 3.464-0.139 1.758 0.18 3.643 1.048 5.981v0.002c1.337 3.63 3.353 6.998 6.372 10.628l0.018 0.023c3.65 4.357 8.036 7.784 13.044 10.211l0.005 0.002c1.915 0.907 4.434 1.955 7.193 2.137 0.179 0.008 0.339 0.016 0.501 0.016 1.799 0 3.159-0.588 4.329-1.853l0.018-0.023c0.481-0.579 1.011-1.083 1.547-1.604l0.002-0.002c0.362-0.347 0.732-0.709 1.080-1.073 0.744-0.775 1.082-1.606 1.080-2.414s-0.34-1.619-1.087-2.366l-4.688-4.688c-0.704-0.732-1.492-1.082-2.318-1.082s-1.629 0.353-2.359 1.082l-3.107 3.107-0.389-0.224c-0.238-0.137-0.49-0.264-0.739-0.389-0.315-0.157-0.622-0.314-0.911-0.499-2.597-1.649-4.949-3.8-7.184-6.541l-0.007-0.007c-1.134-1.434-1.913-2.663-2.46-3.928l-0.167-0.387 0.311-0.281c0.715-0.646 1.39-1.331 2.050-2.007 0.24-0.248 0.486-0.491 0.725-0.73 0.755-0.755 1.121-1.578 1.121-2.389 0-0.814-0.358-1.635-1.119-2.389l-2.322-2.322c-0.276-0.276-0.536-0.543-0.801-0.815l-0.002-0.002c-0.512-0.528-1.042-1.064-1.558-1.542l-0.011-0.011c-0.712-0.697-1.496-1.032-2.331-1.032zM9.28 3.032c0.661 0 1.295 0.319 1.819 0.851 0.529 0.491 1.021 0.996 1.542 1.526l0.005 0.005c0.258 0.266 0.529 0.535 0.803 0.819l2.32 2.32c0.552 0.552 0.904 1.187 0.904 1.872s-0.352 1.318-0.904 1.869c-0.237 0.237-0.479 0.485-0.723 0.73l-0.002 0.002c-0.721 0.729-1.406 1.434-2.174 2.114l-0.014 0.011c-0.247 0.247-0.307 0.422-0.327 0.588-0.020 0.163 0.014 0.34 0.078 0.533 0 0 0.002 0.004 0.002 0.005v0.005c0.002 0.005 0.008 0.019 0.014 0.034 0.575 1.379 1.371 2.693 2.643 4.292l0.002 0.005c2.301 2.838 4.711 5.023 7.363 6.706l0.002 0.002h0.005c0.291 0.189 0.627 0.355 0.97 0.531l0.007 0.002c0.291 0.145 0.572 0.292 0.842 0.46l0.062 0.034c0.005 0.003 0.032 0.017 0.030 0.016l0.005 0.002h0.002c0.184 0.095 0.337 0.13 0.49 0.13 0.375 0 0.622-0.233 0.746-0.357l2.913-2.913c0.528-0.528 1.161-0.865 1.84-0.865 0.833 0 1.441 0.486 1.807 0.881l4.681 4.672c0.543 0.543 0.872 1.187 0.867 1.867s-0.337 1.322-0.881 1.888c-0.337 0.361-0.687 0.702-1.052 1.052l-0.002 0.002c-0.546 0.531-1.096 1.060-1.581 1.643l-0.011 0.011-0.009 0.011c-0.992 1.068-2.264 1.604-3.771 1.604-0.152 0-0.302-0.007-0.437-0.014h-0.002l-0.002-0.002c-2.683-0.172-5.125-1.208-6.93-2.066h-0.002l-0.002-0.002c-4.918-2.38-9.236-5.757-12.815-10.040h-0.002c-2.936-3.534-4.932-6.853-6.251-10.41-0.822-2.193-1.149-4.006-1.016-5.681v-0.007c0.104-1.154 0.573-2.175 1.407-3.009l2.903-2.906c0.534-0.515 1.174-0.826 1.84-0.826z"/><text x="0" y="56" fill="#000000" font-size="5px" font-weight="bold" font-family="'Helvetica Neue', Helvetica, Arial-Unicode, Arial, Sans-serif">Created by vectlab</text><text x="0" y="61" fill="#000000" font-size="5px" font-weight="bold" font-family="'Helvetica Neue', Helvetica, Arial-Unicode, Arial, Sans-serif">from the Noun Project</text></svg>