<svg xmlns="http://www.w3.org/2000/svg" xmlns:xlink="http://www.w3.org/1999/xlink" version="1.1" x="0px" y="0px" viewBox="0 0 100 125" enable-background="new 0 0 100 100" xml:space="preserve"><path d="M80,28H28c-7.929,0-7.943-12,0-12h46v8c0,2.643,4,2.648,4,0V14c0-1.1-0.9-2-2-2H28c-5.5,0-10,4.5-10,10v56  c0,5.5,4.5,10,10,10h52c1.1,0,2-0.9,2-2V30C82,28.9,81.1,28,80,28z M65,56H35V42h30V56z"/><text x="0" y="115" fill="#000000" font-size="5px" font-weight="bold" font-family="'Helvetica Neue', Helvetica, Arial-Unicode, Arial, Sans-serif">Created by Setyo Ari Wibowo</text><text x="0" y="120" fill="#000000" font-size="5px" font-weight="bold" font-family="'Helvetica Neue', Helvetica, Arial-Unicode, Arial, Sans-serif">from the Noun Project</text></svg>