<?xml version="1.0" encoding="UTF-8" standalone="no"?>
<svg
   xmlns:dc="http://purl.org/dc/elements/1.1/"
   xmlns:cc="http://creativecommons.org/ns#"
   xmlns:rdf="http://www.w3.org/1999/02/22-rdf-syntax-ns#"
   xmlns:svg="http://www.w3.org/2000/svg"
   xmlns="http://www.w3.org/2000/svg"
   xmlns:sodipodi="http://sodipodi.sourceforge.net/DTD/sodipodi-0.dtd"
   xmlns:inkscape="http://www.inkscape.org/namespaces/inkscape"
   version="1.1"
   x="0px"
   y="0px"
   viewBox="0 0 90 43.091999"
   enable-background="new 0 0 100 100"
   xml:space="preserve"
   id="svg14"
   sodipodi:docname="noun_Key_1785639.svg"
   width="90"
   height="43.091999"
   inkscape:version="0.92.4 (5da689c313, 2019-01-14)"><metadata
     id="metadata20"><rdf:RDF><cc:Work
         rdf:about=""><dc:format>image/svg+xml</dc:format><dc:type
           rdf:resource="http://purl.org/dc/dcmitype/StillImage" /></cc:Work></rdf:RDF></metadata><defs
     id="defs18" /><sodipodi:namedview
     pagecolor="#ffffff"
     bordercolor="#666666"
     borderopacity="1"
     objecttolerance="10"
     gridtolerance="10"
     guidetolerance="10"
     inkscape:pageopacity="0"
     inkscape:pageshadow="2"
     inkscape:window-width="1366"
     inkscape:window-height="744"
     id="namedview16"
     showgrid="false"
     inkscape:zoom="1.888"
     inkscape:cx="45"
     inkscape:cy="9.046"
     inkscape:window-x="0"
     inkscape:window-y="0"
     inkscape:window-maximized="1"
     inkscape:current-layer="svg14" /><g
     id="g4"
     transform="translate(-5,-28.454)"><path
       d="M 26.545,71.546 C 14.665,71.546 5,61.881 5,50 5,38.12 14.665,28.454 26.545,28.454 c 8.378,0 16.069,4.988 19.557,12.546 H 85 c 0.484,0 0.952,0.176 1.317,0.495 l 8,7 C 94.751,48.875 95,49.423 95,50 c 0,0.577 -0.249,1.125 -0.683,1.505 l -8,7 C 85.952,58.824 85.484,59 85,59 h -0.307 c -0.421,0 -0.83,-0.133 -1.171,-0.379 l -2.982,-2.154 -2.982,2.154 c -0.699,0.506 -1.643,0.506 -2.342,0 l -2.982,-2.154 -2.982,2.154 c -0.699,0.506 -1.643,0.506 -2.342,0 l -2.983,-2.154 -2.982,2.154 c -0.699,0.506 -1.643,0.506 -2.342,0 l -2.982,-2.154 -2.982,2.154 C 52.296,58.867 51.887,59 51.466,59 H 46.103 C 42.614,66.558 34.924,71.546 26.545,71.546 Z m 0,-39.092 C 16.871,32.454 9,40.325 9,50 c 0,9.675 7.871,17.546 17.545,17.546 7.2,0 13.776,-4.526 16.365,-11.264 C 43.208,55.51 43.95,55 44.777,55 h 6.042 l 3.629,-2.621 c 0.699,-0.506 1.643,-0.506 2.342,0 l 2.982,2.154 2.982,-2.154 c 0.699,-0.506 1.643,-0.506 2.342,0 l 2.983,2.154 2.982,-2.154 c 0.699,-0.506 1.643,-0.506 2.342,0 l 2.982,2.154 2.982,-2.154 c 0.699,-0.506 1.643,-0.506 2.342,0 L 84.74,54.568 89.963,50 84.248,45 H 44.777 C 43.949,45 43.207,44.49 42.91,43.717 40.322,36.98 33.745,32.454 26.545,32.454 Z"
       id="path2"
       inkscape:connector-curvature="0" /></g><g
     id="g8"
     transform="translate(-5,-28.454)"><path
       d="m 18,57 c -3.86,0 -7,-3.141 -7,-7 0,-3.86 3.14,-7 7,-7 3.86,0 7,3.14 7,7 0,3.859 -3.14,7 -7,7 z m 0,-10 c -1.654,0 -3,1.346 -3,3 0,1.654 1.346,3 3,3 1.654,0 3,-1.346 3,-3 0,-1.654 -1.346,-3 -3,-3 z"
       id="path6"
       inkscape:connector-curvature="0" /></g><text
     x="-5"
     y="86.545998"
     font-size="5px"
     font-weight="bold"
     id="text10"
     style="font-weight:bold;font-size:5px;font-family:'Helvetica Neue', Helvetica, Arial-Unicode, Arial, Sans-serif;fill:#000000">Created by luca fruzza</text>
<text
     x="-5"
     y="91.545998"
     font-size="5px"
     font-weight="bold"
     id="text12"
     style="font-weight:bold;font-size:5px;font-family:'Helvetica Neue', Helvetica, Arial-Unicode, Arial, Sans-serif;fill:#000000">from the Noun Project</text>
</svg>