<svg xmlns="http://www.w3.org/2000/svg" xmlns:xlink="http://www.w3.org/1999/xlink" version="1.1" x="0px" y="0px" viewBox="0 0 512 640" style="enable-background:new 0 0 512 512;" xml:space="preserve"><g><g><g><path d="M496,401H16c-2.8,0-5-2.2-5-5V116c0-2.8,2.2-5,5-5h480c2.8,0,5,2.2,5,5v280C501,398.8,498.8,401,496,401z M21,391h470     V121H21V391z"/></g><g><path d="M256,301c-1.1,0-2.1-0.3-3-1L13,120c-1.7-1.3-2.4-3.5-1.7-5.6c0.7-2,2.6-3.4,4.7-3.4h480c2.2,0,4.1,1.4,4.7,3.4     c0.7,2,0,4.3-1.7,5.6L259,300C258.1,300.7,257.1,301,256,301z M31,121l225,168.8L481,121H31z"/></g></g></g><text x="0" y="527" fill="#000000" font-size="5px" font-weight="bold" font-family="'Helvetica Neue', Helvetica, Arial-Unicode, Arial, Sans-serif">Created by ibrandify</text><text x="0" y="532" fill="#000000" font-size="5px" font-weight="bold" font-family="'Helvetica Neue', Helvetica, Arial-Unicode, Arial, Sans-serif">from the Noun Project</text></svg>